<?xml version="1.0" standalone="no"?><!DOCTYPE svg PUBLIC "-//W3C//DTD SVG 1.1//EN" "http://www.w3.org/Graphics/SVG/1.1/DTD/svg11.dtd"><svg t="1645185100435" class="icon" viewBox="0 0 1024 1024" version="1.1" xmlns="http://www.w3.org/2000/svg" p-id="1624" xmlns:xlink="http://www.w3.org/1999/xlink" width="200" height="200"><defs><style type="text/css"></style></defs><path d="M192 320A64 64 0 0 1 256 384v448A64 64 0 0 1 192 896h-128C28.714667 896 0 867.328 0 832V384c0-35.328 28.714667-64 64-64h128z m384-192A64 64 0 0 1 640 192v640a64 64 0 0 1-64 64h-128c-35.285333 0-64-28.672-64-64v-640c0-35.328 28.714667-64 64-64h128z m384 320A64 64 0 0 1 1024 512v320a64 64 0 0 1-64 64h-128a64 64 0 0 1-64-64V512a64 64 0 0 1 64-64h128z" fill="#000000" p-id="1625" data-spm-anchor-id="a313x.7781069.0.i0" class="selected"></path></svg>