<?xml version="1.0" standalone="no"?><!DOCTYPE svg PUBLIC "-//W3C//DTD SVG 1.1//EN" "http://www.w3.org/Graphics/SVG/1.1/DTD/svg11.dtd"><svg t="1645156440550" class="icon" viewBox="0 0 1024 1024" version="1.1" xmlns="http://www.w3.org/2000/svg" p-id="1388" data-spm-anchor-id="a313x.7781069.0.i3" xmlns:xlink="http://www.w3.org/1999/xlink" width="200" height="200"><defs><style type="text/css"></style></defs><path d="M480.768 14.336c-26.112 16.896-47.616 41.472-123.904 141.824-32.768 43.52-71.68 87.552-98.816 112.128C206.336 315.392 184.32 353.792 184.32 395.776c0 40.448 11.264 57.344 86.016 132.096C348.16 605.696 354.304 609.28 417.28 609.28c70.656 0 95.744-36.864 66.048-96.768-17.408-34.304-39.424-55.296-77.824-74.752-30.208-14.848-41.984-28.672-41.984-48.128 0-10.24 17.92-27.648 68.096-67.072 84.48-65.536 157.184-175.104 161.28-243.712C596.48 22.016 578.56 0 528.384 0c-18.432 0-30.72 3.584-47.616 14.336z" p-id="1389" data-spm-anchor-id="a313x.7781069.0.i2" class="selected" fill="#000000"></path><path d="M485.376 295.424c-11.776 13.312-11.776 40.96 0.512 60.928 9.216 14.848 72.192 60.416 111.616 80.384 8.704 4.608 17.92 11.264 19.456 14.336 7.68 11.776-30.72 54.784-186.368 209.408-163.84 163.328-212.48 216.576-250.88 276.48-16.896 25.6-20.992 36.864-19.968 51.2 2.048 25.088 19.456 32.768 82.432 34.816 65.536 2.56 75.776-2.048 103.424-44.544 22.016-33.792 51.2-68.096 138.24-160.256l47.104-50.176 7.68 16.896c4.608 8.704 31.232 43.52 59.392 76.8 28.672 32.768 60.928 75.776 72.192 94.72 33.792 57.856 51.712 67.584 125.952 67.584 60.416 0 69.12-4.096 69.12-30.208 0-21.504-12.8-43.52-48.64-83.968-12.288-13.312-36.352-47.616-54.272-76.288-54.272-89.088-84.48-114.176-144.896-121.344l-31.232-3.584 108.032-109.568c59.392-60.416 112.128-117.248 116.736-126.464 18.944-37.376 3.584-77.824-52.736-136.192-38.912-40.96-45.056-43.008-161.792-47.104-97.28-3.584-102.912-3.072-111.104 6.144z" p-id="1390" data-spm-anchor-id="a313x.7781069.0.i1" class="selected" fill="#000000"></path></svg>